<svg width="33" height="33" viewBox="0 0 33 33" fill="none" xmlns="http://www.w3.org/2000/svg">
<path fill-rule="evenodd" clip-rule="evenodd" d="M13.0117 11.9375C13.0117 9.17608 15.2503 6.9375 18.0117 6.9375C20.7731 6.9375 23.0117 9.17608 23.0117 11.9375V19.9375C23.0117 23.8035 19.8777 26.9375 16.0117 26.9375C12.1457 26.9375 9.01172 23.8035 9.01172 19.9375V13.9375C9.01172 13.3852 9.45944 12.9375 10.0117 12.9375C10.564 12.9375 11.0117 13.3852 11.0117 13.9375V19.9375C11.0117 22.6989 13.2503 24.9375 16.0117 24.9375C18.7731 24.9375 21.0117 22.6989 21.0117 19.9375V11.9375C21.0117 10.2807 19.6686 8.9375 18.0117 8.9375C16.3548 8.9375 15.0117 10.2807 15.0117 11.9375V19.9375C15.0117 20.4898 15.4594 20.9375 16.0117 20.9375C16.564 20.9375 17.0117 20.4898 17.0117 19.9375V13.9375C17.0117 13.3852 17.4594 12.9375 18.0117 12.9375C18.564 12.9375 19.0117 13.3852 19.0117 13.9375V19.9375C19.0117 21.5944 17.6686 22.9375 16.0117 22.9375C14.3548 22.9375 13.0117 21.5944 13.0117 19.9375V11.9375Z" fill="white"/>
</svg>
