<svg width="59" height="59" viewBox="0 0 59 59" fill="none" xmlns="http://www.w3.org/2000/svg">
<rect x="0.427734" y="0.686523" width="58" height="58" rx="29" fill="#F8000F"/>
<path d="M42.6344 30.6398L42.3353 32.0151C42.0542 33.3044 40.8205 34.143 39.453 33.9749L36.729 33.6395C35.5433 33.493 34.5518 32.6213 34.2784 31.4851L33.5189 28.3204C32.285 27.7763 30.9168 27.5072 29.415 27.512C27.9687 27.5049 26.5358 27.788 25.2009 28.3447L24.6031 31.2739C24.3758 32.3828 23.4331 33.1909 22.2658 33.2765L19.5447 33.4794C18.1862 33.5798 16.9109 32.6838 16.5597 31.3834L16.1828 29.9904C15.8084 28.6031 16.2124 27.1633 17.2446 26.2127C19.6815 23.9654 23.6715 22.9127 29.2173 23.0502C34.7714 23.1882 38.827 24.4464 41.3793 26.8235C42.4535 27.8235 42.9318 29.275 42.6344 30.6398Z" fill="white"/>
</svg>
