<svg width="59" height="59" viewBox="0 0 59 59" fill="none" xmlns="http://www.w3.org/2000/svg">
<g filter="url(#filter0_b_103_1512)">
<circle cx="29.4277" cy="29.6865" r="29" fill="black" fill-opacity="0.52"/>
</g>
<path d="M30.6346 18.8105C29.4329 18.8105 28.2804 19.2879 27.4306 20.1377C26.5809 20.9875 26.1035 22.14 26.1035 23.3417V29.6854C26.1035 30.8871 26.5809 32.0397 27.4306 32.8894C28.2804 33.7392 29.4329 34.2166 30.6346 34.2166C31.8364 34.2166 32.9889 33.7392 33.8387 32.8894C34.6884 32.0397 35.1658 30.8871 35.1658 29.6854V23.3417C35.1658 22.14 34.6884 20.9875 33.8387 20.1377C32.9889 19.2879 31.8364 18.8105 30.6346 18.8105V18.8105ZM23.3848 28.7792C23.6251 28.7792 23.8556 28.8746 24.0256 29.0446C24.1955 29.2145 24.291 29.445 24.291 29.6854C24.291 31.3678 24.9593 32.9814 26.149 34.171C27.3387 35.3607 28.9522 36.029 30.6346 36.029C32.3171 36.029 33.9306 35.3607 35.1203 34.171C36.31 32.9814 36.9783 31.3678 36.9783 29.6854C36.9783 29.445 37.0738 29.2145 37.2437 29.0446C37.4137 28.8746 37.6442 28.7792 37.8845 28.7792C38.1249 28.7792 38.3554 28.8746 38.5253 29.0446C38.6953 29.2145 38.7908 29.445 38.7908 29.6854C38.7912 31.6919 38.0519 33.6281 36.7144 35.1238C35.3769 36.6195 33.535 37.5696 31.5409 37.7926V39.654C31.5409 39.8943 31.4454 40.1248 31.2755 40.2948C31.1055 40.4648 30.875 40.5602 30.6346 40.5602C30.3943 40.5602 30.1638 40.4648 29.9938 40.2948C29.8239 40.1248 29.7284 39.8943 29.7284 39.654V37.7926C27.7343 37.5696 25.8924 36.6195 24.5549 35.1238C23.2174 33.6281 22.4781 31.6919 22.4785 29.6854C22.4785 29.445 22.574 29.2145 22.7439 29.0446C22.9139 28.8746 23.1444 28.7792 23.3848 28.7792Z" fill="white"/>
<defs>
<filter id="filter0_b_103_1512" x="-39.5723" y="-39.3135" width="138" height="138" filterUnits="userSpaceOnUse" color-interpolation-filters="sRGB">
<feFlood flood-opacity="0" result="BackgroundImageFix"/>
<feGaussianBlur in="BackgroundImageFix" stdDeviation="20"/>
<feComposite in2="SourceAlpha" operator="in" result="effect1_backgroundBlur_103_1512"/>
<feBlend mode="normal" in="SourceGraphic" in2="effect1_backgroundBlur_103_1512" result="shape"/>
</filter>
</defs>
</svg>
