<svg width="47" height="47" viewBox="0 0 47 47" fill="none" xmlns="http://www.w3.org/2000/svg">
<rect x="0.257812" y="0.789062" width="46" height="46" rx="23" fill="white" fill-opacity="0.09"/>
<path d="M23.2578 11.7891C21.8903 11.7891 20.5788 12.3158 19.6118 13.2535C18.6448 14.1912 18.1016 15.463 18.1016 16.7891V23.7891C18.1016 25.1151 18.6448 26.3869 19.6118 27.3246C20.5788 28.2623 21.8903 28.7891 23.2578 28.7891C24.6253 28.7891 25.9368 28.2623 26.9038 27.3246C27.8708 26.3869 28.4141 25.1151 28.4141 23.7891V16.7891C28.4141 15.463 27.8708 14.1912 26.9038 13.2535C25.9368 12.3158 24.6253 11.7891 23.2578 11.7891ZM15.0078 22.7891C15.2813 22.7891 15.5436 22.8944 15.737 23.082C15.9304 23.2695 16.0391 23.5238 16.0391 23.7891C16.0391 25.6456 16.7996 27.4261 18.1534 28.7388C19.5072 30.0516 21.3433 30.7891 23.2578 30.7891C25.1723 30.7891 27.0085 30.0516 28.3622 28.7388C29.716 27.4261 30.4766 25.6456 30.4766 23.7891C30.4766 23.5238 30.5852 23.2695 30.7786 23.082C30.972 22.8944 31.2343 22.7891 31.5078 22.7891C31.7813 22.7891 32.0436 22.8944 32.237 23.082C32.4304 23.2695 32.5391 23.5238 32.5391 23.7891C32.5395 26.0032 31.6983 28.1397 30.1762 29.7901C28.6542 31.4406 26.5582 32.4891 24.2891 32.7351V34.7891C24.2891 35.0543 24.1804 35.3086 23.987 35.4962C23.7936 35.6837 23.5313 35.7891 23.2578 35.7891C22.9843 35.7891 22.722 35.6837 22.5286 35.4962C22.3352 35.3086 22.2266 35.0543 22.2266 34.7891V32.7351C19.9574 32.4891 17.8614 31.4406 16.3394 29.7901C14.8174 28.1397 13.9761 26.0032 13.9766 23.7891C13.9766 23.5238 14.0852 23.2695 14.2786 23.082C14.472 22.8944 14.7343 22.7891 15.0078 22.7891Z" fill="white"/>
</svg>
