<svg width="47" height="47" viewBox="0 0 47 47" fill="none" xmlns="http://www.w3.org/2000/svg">
<rect x="0.207031" y="0.789062" width="46" height="46" rx="23" fill="white" fill-opacity="0.08"/>
<path d="M38.1434 23.3389L16.5636 11.8989C16.3945 11.8092 16.2045 11.7733 16.0165 11.7954C15.8286 11.8176 15.6507 11.8968 15.5042 12.0237C15.3644 12.148 15.26 12.3111 15.2028 12.4949C15.1456 12.6786 15.1379 12.8756 15.1806 13.0637L17.7799 23.2245H28.8739V25.3045H17.7799L15.1413 35.4341C15.1013 35.5912 15.0967 35.7561 15.1277 35.9154C15.1587 36.0748 15.2246 36.2242 15.32 36.3516C15.4154 36.4791 15.5377 36.581 15.677 36.6493C15.8163 36.7175 15.9688 36.7501 16.1222 36.7445C16.2758 36.7435 16.427 36.7043 16.5636 36.6301L38.1434 25.1901C38.3041 25.1028 38.4389 24.9702 38.5331 24.8069C38.6272 24.6436 38.677 24.4559 38.677 24.2645C38.677 24.0731 38.6272 23.8854 38.5331 23.7221C38.4389 23.5588 38.3041 23.4262 38.1434 23.3389Z" fill="white"/>
</svg>
