<svg width="51" height="50" viewBox="0 0 51 50" fill="none" xmlns="http://www.w3.org/2000/svg">
<g clip-path="url(#clip0_103_10619)">
<path d="M25.3906 0C11.584 0 0.390625 11.1924 0.390625 25C0.390625 38.8076 11.584 50 25.3906 50C39.1973 50 50.3906 38.8066 50.3906 25C50.3906 11.1934 39.1982 0 25.3906 0Z" fill="white" fill-opacity="0.2"/>
<path d="M37.6609 22.3262L27.0447 32.9424C26.1296 33.8574 24.6453 33.8574 23.7302 32.9424L13.1218 22.334C12.2068 21.4189 12.2068 19.9346 13.1218 19.0195C14.0369 18.1045 15.5212 18.1045 16.4363 19.0195L25.3875 27.9707L34.3464 19.0117C34.8044 18.5537 35.4041 18.3252 36.0037 18.3252C36.6033 18.3252 37.2029 18.5537 37.6609 19.0117C38.5759 19.9268 38.5759 21.4111 37.6609 22.3262Z" fill="#DADADA"/>
</g>
<defs>
<clipPath id="clip0_103_10619">
<rect width="50" height="50" fill="white" transform="translate(0.386719)"/>
</clipPath>
</defs>
</svg>
