<svg width="38" height="37" viewBox="0 0 38 37" fill="none" xmlns="http://www.w3.org/2000/svg">
<g clip-path="url(#clip0_103_1188)">
<path d="M33.2441 19C33.2441 27.0081 26.7523 33.5 18.7441 33.5C10.736 33.5 4.24414 27.0081 4.24414 19C4.24414 10.9919 10.736 4.5 18.7441 4.5C26.7523 4.5 33.2441 10.9919 33.2441 19Z" fill="white" fill-opacity="0.18" stroke="white"/>
<path d="M15.3398 22.9785V15.0215C15.3398 13.0117 16.7139 11.6172 18.7441 11.6172C20.7744 11.6172 22.1484 13.0117 22.1484 15.0215V16.7031H20.0156V15.0215C20.0156 14.1807 19.5029 13.668 18.7646 13.668C18.0264 13.668 17.5137 14.1807 17.5137 15.0215V22.9785C17.5137 23.8193 18.0264 24.332 18.7646 24.332C19.5029 24.332 20.0156 23.8193 20.0156 22.9785V20.9277H22.1484V22.9785C22.1484 24.9883 20.7744 26.3828 18.7441 26.3828C16.7139 26.3828 15.3398 24.9883 15.3398 22.9785Z" fill="white"/>
</g>
<defs>
<clipPath id="clip0_103_1188">
<rect width="30" height="30" fill="white" transform="translate(3.74414 4)"/>
</clipPath>
</defs>
</svg>
