<svg width="51" height="51" viewBox="0 0 51 51" fill="none" xmlns="http://www.w3.org/2000/svg">
<path d="M46.6328 21.0088H28.0293C27.209 21.0088 26.5449 21.6729 26.5449 22.4932V28.4404C26.5449 29.2607 27.209 29.9248 28.0293 29.9248H38.5078C37.3652 32.9033 35.2168 35.3936 32.4922 36.9756L36.9551 44.71C44.1133 40.5693 48.3516 33.2939 48.3516 25.1592C48.3516 23.9971 48.2637 23.167 48.0977 22.2393C47.9609 21.5264 47.3457 21.0088 46.6328 21.0088Z" fill="#167EE6"/>
<path d="M25.5488 38.8506C20.4219 38.8506 15.9492 36.0479 13.5469 31.9072L5.8125 36.3604C9.74805 43.1865 17.1211 47.7764 25.5488 47.7764C29.6895 47.7764 33.5859 46.6631 36.9551 44.7197V44.71L32.4922 36.9756C30.4414 38.167 28.0781 38.8506 25.5488 38.8506Z" fill="#12B347"/>
<path d="M36.9453 44.7197V44.71L32.4824 36.9756C30.4414 38.1572 28.0781 38.8506 25.5488 38.8506V47.7764C29.6895 47.7764 33.5859 46.6631 36.9453 44.7197Z" fill="#0F993E"/>
<path d="M11.6719 24.9736C11.6719 22.4443 12.3652 20.0811 13.5469 18.04L5.8125 13.5869C3.85938 16.9365 2.74609 20.8232 2.74609 24.9736C2.74609 29.124 3.85938 33.0107 5.8125 36.3604L13.5469 31.9072C12.3555 29.8662 11.6719 27.5029 11.6719 24.9736Z" fill="#FFD500"/>
<path d="M25.5488 11.0967C28.8887 11.0967 31.9648 12.2881 34.3574 14.2607C34.9531 14.749 35.8125 14.71 36.3496 14.1729L40.5586 9.96387C41.1738 9.34863 41.125 8.34277 40.4707 7.77637C36.457 4.28027 31.2324 2.1709 25.5488 2.1709C17.1211 2.1709 9.74805 6.76074 5.8125 13.5869L13.5469 18.04C15.9492 13.8994 20.4219 11.0967 25.5488 11.0967Z" fill="#FF4B26"/>
<path d="M34.3574 14.2607C34.9531 14.749 35.8125 14.71 36.3496 14.1729L40.5586 9.96387C41.1738 9.34863 41.125 8.34277 40.4707 7.77637C36.457 4.28027 31.2324 2.1709 25.5488 2.1709V11.0967C28.8887 11.0967 31.9648 12.2783 34.3574 14.2607Z" fill="#D93F21"/>
</svg>
