<svg width="38" height="37" viewBox="0 0 38 37" fill="none" xmlns="http://www.w3.org/2000/svg">
<path opacity="0.5" d="M34.3197 18.4997C34.3197 27.014 27.4173 33.9163 18.903 33.9163C10.3886 33.9163 3.48633 27.014 3.48633 18.4997C3.48633 9.98528 10.3886 3.08301 18.903 3.08301C27.4173 3.08301 34.3197 9.98528 34.3197 18.4997Z" fill="white" fill-opacity="0.28"/>
<path d="M18.9023 27.3643C19.5409 27.3643 20.0586 26.8466 20.0586 26.208V16.958C20.0586 16.3194 19.5409 15.8018 18.9023 15.8018C18.2638 15.8018 17.7461 16.3194 17.7461 16.958V26.208C17.7461 26.8466 18.2638 27.3643 18.9023 27.3643Z" fill="white"/>
<path d="M18.903 10.792C19.7545 10.792 20.4447 11.4822 20.4447 12.3337C20.4447 13.1851 19.7545 13.8753 18.903 13.8753C18.0515 13.8753 17.3613 13.1851 17.3613 12.3337C17.3613 11.4822 18.0515 10.792 18.903 10.792Z" fill="white"/>
</svg>
